<svg width="24" height="24" viewBox="0 0 24 24" fill="none" xmlns="http://www.w3.org/2000/svg">
<path d="M8.38401 2.4796L7.52361 2.7388C6.7575 2.96984 6.07334 3.41491 5.55164 4.02165C5.02994 4.62838 4.69242 5.37152 4.57881 6.1636C4.22241 8.6452 5.01921 11.5468 6.94041 14.8744C8.85681 18.1936 10.9664 20.332 13.2884 21.268C14.0345 21.5687 14.8512 21.6488 15.6415 21.4988C16.4318 21.3489 17.1624 20.9751 17.7464 20.422L18.3968 19.8052C18.8191 19.4055 19.082 18.866 19.1365 18.2871C19.191 17.7082 19.0335 17.1291 18.6932 16.6576L17.066 14.4016C16.846 14.097 16.5362 13.8689 16.1801 13.7493C15.8239 13.6296 15.4393 13.6244 15.08 13.7344L12.6188 14.4868L12.5552 14.4988C12.284 14.5384 11.6576 13.9516 10.8776 12.6004C10.0616 11.1868 9.89361 10.36 10.118 10.1464L11.3696 8.9788C11.8268 8.55185 12.1392 7.99264 12.2629 7.37942C12.3866 6.7662 12.3155 6.12964 12.0596 5.5588L11.2652 3.7936C11.0263 3.26241 10.6024 2.83621 10.0726 2.59446C9.54268 2.3527 8.94177 2.31188 8.38401 2.4796ZM10.1732 4.2856L10.9652 6.0508C11.1189 6.39318 11.1617 6.77504 11.0877 7.14297C11.0137 7.5109 10.8265 7.84649 10.5524 8.1028L9.29721 9.2716C8.49321 10.0324 8.75961 11.3308 9.83961 13.2004C10.8548 14.9596 11.7812 15.8284 12.7772 15.6772L12.926 15.646L15.4316 14.8816C15.5514 14.8448 15.6797 14.8464 15.7985 14.8863C15.9172 14.9261 16.0206 15.0021 16.094 15.1036L17.7212 17.3596C17.8916 17.5953 17.9706 17.885 17.9434 18.1746C17.9163 18.4642 17.7848 18.734 17.5736 18.934L16.922 19.5508C16.5048 19.9456 15.9831 20.2124 15.4187 20.3194C14.8544 20.4264 14.2712 20.3691 13.7384 20.1544C11.7008 19.3336 9.77481 17.3812 7.98081 14.2744C6.18201 11.1604 5.45361 8.512 5.76681 6.334C5.84788 5.76812 6.08895 5.23718 6.46163 4.8037C6.83431 4.37021 7.32309 4.05224 7.87041 3.8872L8.73081 3.628C9.00976 3.54418 9.30967 3.56468 9.57463 3.68567C9.83958 3.80667 10.0515 4.0199 10.1708 4.2856" fill="white"/>
</svg>
