<svg width="38" height="24" viewBox="0 0 38 24" fill="none" xmlns="http://www.w3.org/2000/svg">
<path opacity="0.07" d="M35.0079 0.000976562H3.00961C1.3097 0.000976562 0.00976562 1.30087 0.00976562 3.00073V20.9992C0.00976562 22.6991 1.40969 23.999 3.00961 23.999H35.0079C36.7078 23.999 38.0078 22.6991 38.0078 20.9992V3.00073C38.0078 1.30087 36.6078 0.000976562 35.0079 0.000976562Z" fill="black"/>
<path d="M35.008 1.00098C36.1079 1.00098 37.0079 1.9009 37.0079 3.00081V20.9993C37.0079 22.0992 36.1079 22.9992 35.008 22.9992H3.00966C1.90972 22.9992 1.00977 22.0992 1.00977 20.9993V3.00081C1.00977 1.9009 1.90972 1.00098 3.00966 1.00098H35.008Z" fill="#006FCF"/>
<path d="M22.0205 19.9354V11.5151L37.0073 11.5281V13.8539L35.2754 15.7058L37.0073 17.5726V19.9474H34.2415L32.7716 18.3256L31.3117 19.9534L22.0205 19.9334V19.9354Z" fill="white"/>
<path d="M23.0215 19.0114V12.4419H28.593V13.9548H24.8253V14.9827H28.503V16.4706H24.8253V17.4805H28.593V19.0114H23.0215Z" fill="#006FCF"/>
<path d="M28.5654 19.0114L31.6482 15.7226L28.5654 12.4409H30.9512L32.8351 14.5237L34.7249 12.4419H37.0077V12.4929L33.991 15.7226L37.0077 18.9194V19.0124H34.7009L32.7841 16.9095L30.8862 19.0134H28.5654V19.0114Z" fill="#006FCF"/>
<path d="M22.7185 4.04077H26.3322L27.6011 6.92153V4.04077H32.0607L32.8306 6.19959L33.6016 4.04077H37.0073V12.4611H19.0088L22.7185 4.04077Z" fill="white"/>
<path d="M23.4036 4.95557L20.4878 11.521H22.4876L23.0376 10.2061H26.0173L26.5673 11.521H28.6171L25.7134 4.95557H23.4036ZM23.6535 8.73225L24.5285 6.64243L25.4014 8.73225H23.6535Z" fill="#006FCF"/>
<path d="M28.5894 11.5201V4.95361L31.4001 4.96361L32.848 9.00028L34.3039 4.95461H37.0077V11.5191L35.2678 11.5351V7.02544L33.6239 11.5191H32.0341L30.3582 7.01044V11.5201H28.5904H28.5894Z" fill="#006FCF"/>
</svg>
