<svg width="38" height="24" viewBox="0 0 38 24" fill="none" xmlns="http://www.w3.org/2000/svg">
<path opacity="0.07" d="M35.0099 0.00195312H3.01156C1.31165 0.00195312 0.0117188 1.30185 0.0117188 3.00171V21.0002C0.0117188 22.7001 1.41165 24 3.01156 24H35.0099C36.7098 24 38.0097 22.7001 38.0097 21.0002V3.00171C38.0097 1.30185 36.6098 0.00195312 35.0099 0.00195312Z" fill="black"/>
<path d="M35.0099 1C36.1099 1 37.0098 1.89993 37.0098 2.99983V20.9983C37.0098 22.0983 36.1099 22.9982 35.0099 22.9982H3.01161C1.91167 22.9982 1.01172 22.0983 1.01172 20.9983V2.99983C1.01172 1.89993 1.91167 1 3.01161 1H35.0099Z" fill="white"/>
<path d="M15.0111 18.9988C18.8768 18.9988 22.0106 15.8651 22.0106 11.9994C22.0106 8.13375 18.8768 5 15.0111 5C11.1455 5 8.01172 8.13375 8.01172 11.9994C8.01172 15.8651 11.1455 18.9988 15.0111 18.9988Z" fill="#EB001B"/>
<path d="M23.0102 18.9988C26.8758 18.9988 30.0096 15.8651 30.0096 11.9994C30.0096 8.13375 26.8758 5 23.0102 5C19.1445 5 16.0107 8.13375 16.0107 11.9994C16.0107 15.8651 19.1445 18.9988 23.0102 18.9988Z" fill="#F79E1B"/>
<path d="M22.0102 12.0003C22.0102 9.60051 20.8103 7.50068 19.0105 6.30078C17.2106 7.60067 16.0107 9.7005 16.0107 12.0003C16.0107 14.3001 17.2106 16.4999 19.0105 17.6998C20.8103 16.4999 22.0102 14.4001 22.0102 12.0003Z" fill="#FF5F00"/>
</svg>
