<svg width="38" height="24" viewBox="0 0 38 24" fill="none" xmlns="http://www.w3.org/2000/svg">
<path opacity="0.07" d="M35.0079 0.00195312H3.00961C1.3097 0.00195312 0.00976562 1.30185 0.00976562 3.00171V21.0002C0.00976562 22.7001 1.40969 24 3.00961 24H35.0079C36.7078 24 38.0078 22.7001 38.0078 21.0002V3.00171C38.0078 1.30185 36.6078 0.00195312 35.0079 0.00195312Z" fill="black"/>
<path d="M35.008 1C36.1079 1 37.0079 1.89993 37.0079 2.99983V20.9983C37.0079 22.0983 36.1079 22.9982 35.008 22.9982H3.00966C1.90972 22.9982 1.00977 22.0983 1.00977 20.9983V2.99983C1.00977 1.89993 1.90972 1 3.00966 1H35.008Z" fill="#006FCF"/>
<path d="M22.0205 19.9359V11.5156L37.0073 11.5286V13.8544L35.2754 15.7063L37.0073 17.5731V19.9479H34.2415L32.7716 18.3261L31.3117 19.9539L22.0205 19.9339V19.9359Z" fill="white"/>
<path d="M23.0215 19.0109V12.4414H28.593V13.9543H24.8253V14.9822H28.503V16.4701H24.8253V17.48H28.593V19.0109H23.0215Z" fill="#006FCF"/>
<path d="M28.5654 19.0119L31.6482 15.7231L28.5654 12.4414H30.9512L32.8351 14.5242L34.7249 12.4424H37.0077V12.4934L33.991 15.7231L37.0077 18.9199V19.0129H34.7009L32.7841 16.91L30.8862 19.0139H28.5654V19.0119Z" fill="#006FCF"/>
<path d="M22.7185 4.04102H26.3322L27.6011 6.92178V4.04102H32.0607L32.8306 6.19984L33.6016 4.04102H37.0073V12.4613H19.0088L22.7185 4.04102Z" fill="white"/>
<path d="M23.4031 4.95508L20.4873 11.5205H22.4871L23.0371 10.2056H26.0168L26.5668 11.5205H28.6166L25.7129 4.95508H23.4031ZM23.653 8.73177L24.528 6.64194L25.4009 8.73177H23.653Z" fill="#006FCF"/>
<path d="M28.5889 11.5196V4.95312L31.3996 4.96312L32.8475 8.99979L34.3034 4.95412H37.0072V11.5186L35.2673 11.5346V7.02495L33.6235 11.5186H32.0336L30.3577 7.00996V11.5196H28.5899H28.5889Z" fill="#006FCF"/>
</svg>
