<svg width="38" height="24" viewBox="0 0 38 24" fill="none" xmlns="http://www.w3.org/2000/svg">
<path opacity="0.07" d="M35.008 0.000976562H3.00973C1.30982 0.000976562 0.0098877 1.30087 0.0098877 3.00073V20.9992C0.0098877 22.6991 1.40981 23.999 3.00973 23.999H35.008C36.708 23.999 38.0079 22.6991 38.0079 20.9992V3.00073C38.0079 1.30087 36.608 0.000976562 35.008 0.000976562Z" fill="black"/>
<path d="M35.008 1.00098C36.1079 1.00098 37.0079 1.9009 37.0079 3.00081V20.9993C37.0079 22.0992 36.1079 22.9992 35.008 22.9992H3.00966C1.90972 22.9992 1.00977 22.0992 1.00977 20.9993V3.00081C1.00977 1.9009 1.90972 1.00098 3.00966 1.00098H35.008Z" fill="#006FCF"/>
<path d="M22.0208 19.935V11.5146L37.0075 11.5276V13.8535L35.2757 15.7053L37.0075 17.5721V19.947H34.2417L32.7719 18.3251L31.312 19.953L22.0208 19.933V19.935Z" fill="white"/>
<path d="M23.0217 19.0118V12.4424H28.5933V13.9553H24.8256V14.9832H28.5033V16.4711H24.8256V17.481H28.5933V19.0118H23.0217Z" fill="#006FCF"/>
<path d="M28.5654 19.0119L31.6482 15.7231L28.5654 12.4414H30.9512L32.8351 14.5242L34.7249 12.4424H37.0077V12.4934L33.991 15.7231L37.0077 18.9199V19.0129H34.7009L32.7841 16.91L30.8862 19.0139H28.5654V19.0119Z" fill="#006FCF"/>
<path d="M22.7186 4.04053H26.3323L27.6012 6.92129V4.04053H32.0608L32.8308 6.19935L33.6017 4.04053H37.0074V12.4608H19.0089L22.7186 4.04053Z" fill="white"/>
<path d="M23.4036 4.95557L20.4878 11.521H22.4876L23.0376 10.2061H26.0173L26.5673 11.521H28.6171L25.7134 4.95557H23.4036ZM23.6535 8.73225L24.5285 6.64243L25.4014 8.73225H23.6535Z" fill="#006FCF"/>
<path d="M28.5894 11.5201V4.95361L31.4001 4.96361L32.848 9.00028L34.3039 4.95461H37.0077V11.5191L35.2678 11.5351V7.02544L33.6239 11.5191H32.0341L30.3582 7.01044V11.5201H28.5904H28.5894Z" fill="#006FCF"/>
</svg>
