<svg width="39" height="24" viewBox="0 0 39 24" fill="none" xmlns="http://www.w3.org/2000/svg">
<path opacity="0.07" d="M35.0118 0.000976562H3.01351C1.3136 0.000976562 0.0136719 1.30087 0.0136719 3.00073V20.9992C0.0136719 22.6991 1.4136 23.999 3.01351 23.999H35.0118C36.7117 23.999 38.0117 22.6991 38.0117 20.9992V3.00073C38.0117 1.30087 36.6117 0.000976562 35.0118 0.000976562Z" fill="black"/>
<path d="M35.0119 1.00098C36.1118 1.00098 37.0118 1.9009 37.0118 3.00081V20.9993C37.0118 22.0992 36.1118 22.9992 35.0119 22.9992H3.01357C1.91362 22.9992 1.01367 22.0992 1.01367 20.9993V3.00081C1.01367 1.9009 1.91362 1.00098 3.01357 1.00098H35.0119Z" fill="white"/>
<path d="M28.312 10.1003H28.012C27.612 11.1002 27.312 11.6002 27.012 13.1001H28.9119C28.6119 11.6002 28.6119 10.9002 28.312 10.1003ZM31.2118 15.9998H29.5119C29.4119 15.9998 29.4119 15.9998 29.3119 15.8998L29.1119 14.9999L29.0119 14.7999H26.612C26.5121 14.7999 26.4121 14.7999 26.4121 14.9999L26.1121 15.8998C26.1121 15.9998 26.0121 15.9998 26.0121 15.9998H23.9122L24.1122 15.4999L27.012 8.70043C27.012 8.20047 27.312 8.00049 27.812 8.00049H29.3119C29.4119 8.00049 29.5119 8.00049 29.5119 8.20047L30.9118 14.6999C31.0118 15.0999 31.1118 15.3999 31.1118 15.7998C31.2118 15.8998 31.2118 15.8998 31.2118 15.9998ZM17.8125 15.6999L18.2125 13.9C18.3125 13.9 18.4125 14 18.4125 14C19.1124 14.3 19.8124 14.5 20.5124 14.4C20.7124 14.4 21.0123 14.3 21.2123 14.2C21.7123 14 21.7123 13.5 21.3123 13.1001C21.1123 12.9001 20.8124 12.8001 20.5124 12.6001C20.1124 12.4001 19.7124 12.2001 19.4124 11.9002C18.2125 10.9002 18.6125 9.50036 19.3124 8.80042C19.9124 8.40046 20.2124 8.00049 21.0123 8.00049C22.2123 8.00049 23.5122 8.00049 24.1122 8.20047H24.2122C24.1122 8.80042 24.0122 9.30038 23.8122 9.90033C23.3122 9.70035 22.8122 9.50036 22.3123 9.50036C22.0123 9.50036 21.7123 9.50036 21.4123 9.60036C21.2123 9.60036 21.1123 9.70035 21.0123 9.80034C20.8124 10.0003 20.8124 10.3003 21.0123 10.5003L21.5123 10.9002C21.9123 11.1002 22.3123 11.3002 22.6123 11.5002C23.1122 11.8002 23.6122 12.3001 23.7122 12.9001C23.9122 13.8 23.6122 14.5999 22.8122 15.1999C22.3123 15.5999 22.1123 15.7998 21.4123 15.7998C20.0124 15.7998 18.9125 15.8998 18.0125 15.5999C17.9125 15.7998 17.9125 15.7998 17.8125 15.6999ZM14.3127 15.9998C14.4127 15.2999 14.4127 15.2999 14.5127 14.9999C15.0127 12.8001 15.5126 10.5003 15.9126 8.30046C16.0126 8.10048 16.0126 8.00049 16.2126 8.00049H18.0125C17.8125 9.20039 17.6125 10.1003 17.3125 11.2002C17.0126 12.7001 16.7126 14.2 16.3126 15.6999C16.3126 15.8998 16.2126 15.8998 16.0126 15.8998M5.01318 8.20047C5.01318 8.10048 5.21317 8.00049 5.31317 8.00049H8.71299C9.21296 8.00049 9.61294 8.30046 9.71294 8.80042L10.6129 13.2001C10.6129 13.3001 10.6129 13.3001 10.7129 13.4C10.7129 13.3001 10.8129 13.3001 10.8129 13.3001L12.9128 8.20047C12.8128 8.10048 12.9128 8.00049 13.0128 8.00049H15.1127C15.1127 8.10048 15.1127 8.10048 15.0127 8.20047L11.9128 15.4999C11.8128 15.6999 11.8128 15.7998 11.7128 15.8998C11.6128 15.9998 11.4128 15.8998 11.2129 15.8998H9.71294C9.61294 15.8998 9.51295 15.8998 9.51295 15.6999L7.91303 9.50036C7.71304 9.30038 7.41306 9.00041 7.01308 8.90041C6.41311 8.60044 5.31317 8.40045 5.11318 8.40045L5.01318 8.20047Z" fill="#142688"/>
</svg>
