<svg width="38" height="24" viewBox="0 0 38 24" fill="none" xmlns="http://www.w3.org/2000/svg">
<path opacity="0.07" d="M35.0099 0.000976562H3.01156C1.31165 0.000976562 0.0117188 1.30087 0.0117188 3.00073V20.9992C0.0117188 22.6991 1.41165 23.999 3.01156 23.999H35.0099C36.7098 23.999 38.0097 22.6991 38.0097 20.9992V3.00073C38.0097 1.30087 36.6098 0.000976562 35.0099 0.000976562Z" fill="black"/>
<path d="M35.0099 1.00098C36.1099 1.00098 37.0098 1.9009 37.0098 3.00081V20.9993C37.0098 22.0992 36.1099 22.9992 35.0099 22.9992H3.01161C1.91167 22.9992 1.01172 22.0992 1.01172 20.9993V3.00081C1.01172 1.9009 1.91167 1.00098 3.01161 1.00098H35.0099Z" fill="white"/>
<path d="M15.0107 18.9993C18.8763 18.9993 22.0101 15.8656 22.0101 11.9999C22.0101 8.13424 18.8763 5.00049 15.0107 5.00049C11.145 5.00049 8.01123 8.13424 8.01123 11.9999C8.01123 15.8656 11.145 18.9993 15.0107 18.9993Z" fill="#EB001B"/>
<path d="M23.0102 18.9993C26.8758 18.9993 30.0096 15.8656 30.0096 11.9999C30.0096 8.13424 26.8758 5.00049 23.0102 5.00049C19.1445 5.00049 16.0107 8.13424 16.0107 11.9999C16.0107 15.8656 19.1445 18.9993 23.0102 18.9993Z" fill="#F79E1B"/>
<path d="M22.0102 12.0001C22.0102 9.60026 20.8103 7.50044 19.0105 6.30054C17.2106 7.60043 16.0107 9.70026 16.0107 12.0001C16.0107 14.2999 17.2106 16.4997 19.0105 17.6996C20.8103 16.4997 22.0102 14.3999 22.0102 12.0001Z" fill="#FF5F00"/>
</svg>
