<svg width="39" height="24" viewBox="0 0 39 24" fill="none" xmlns="http://www.w3.org/2000/svg">
<path opacity="0.07" d="M35.0121 0.000976562H3.01376C1.31385 0.000976562 0.013916 1.30087 0.013916 3.00073V20.9992C0.013916 22.6991 1.41384 23.999 3.01376 23.999H35.0121C36.712 23.999 38.0119 22.6991 38.0119 20.9992V3.00073C38.0119 1.30087 36.612 0.000976562 35.0121 0.000976562Z" fill="black"/>
<path d="M35.012 1.00098C36.1119 1.00098 37.0119 1.9009 37.0119 3.00081V20.9993C37.0119 22.0992 36.1119 22.9992 35.012 22.9992H3.01369C1.91375 22.9992 1.01379 22.0992 1.01379 20.9993V3.00081C1.01379 1.9009 1.91375 1.00098 3.01369 1.00098H35.012Z" fill="white"/>
<path d="M28.3124 10.1003H28.0125C27.6125 11.1002 27.3125 11.6002 27.0125 13.1001H28.9124C28.6124 11.6002 28.6124 10.9002 28.3124 10.1003ZM31.2123 15.9998H29.5124C29.4124 15.9998 29.4124 15.9998 29.3124 15.8998L29.1124 14.9999L29.0124 14.7999H26.6125C26.5125 14.7999 26.4125 14.7999 26.4125 14.9999L26.1126 15.8998C26.1126 15.9998 26.0126 15.9998 26.0126 15.9998H23.9127L24.1127 15.4999L27.0125 8.70043C27.0125 8.20047 27.3125 8.00049 27.8125 8.00049H29.3124C29.4124 8.00049 29.5124 8.00049 29.5124 8.20047L30.9123 14.6999C31.0123 15.0999 31.1123 15.3999 31.1123 15.7998C31.2123 15.8998 31.2123 15.8998 31.2123 15.9998ZM17.813 15.6999L18.213 13.9C18.313 13.9 18.413 14 18.413 14C19.1129 14.3 19.8129 14.5 20.5129 14.4C20.7128 14.4 21.0128 14.3 21.2128 14.2C21.7128 14 21.7128 13.5 21.3128 13.1001C21.1128 12.9001 20.8128 12.8001 20.5129 12.6001C20.1129 12.4001 19.7129 12.2001 19.4129 11.9002C18.213 10.9002 18.613 9.50036 19.3129 8.80042C19.9129 8.40046 20.2129 8.00049 21.0128 8.00049C22.2128 8.00049 23.5127 8.00049 24.1127 8.20047H24.2127C24.1127 8.80042 24.0127 9.30038 23.8127 9.90033C23.3127 9.70035 22.8127 9.50036 22.3128 9.50036C22.0128 9.50036 21.7128 9.50036 21.4128 9.60036C21.2128 9.60036 21.1128 9.70035 21.0128 9.80034C20.8128 10.0003 20.8128 10.3003 21.0128 10.5003L21.5128 10.9002C21.9128 11.1002 22.3128 11.3002 22.6127 11.5002C23.1127 11.8002 23.6127 12.3001 23.7127 12.9001C23.9127 13.8 23.6127 14.5999 22.8127 15.1999C22.3128 15.5999 22.1128 15.7998 21.4128 15.7998C20.0129 15.7998 18.9129 15.8998 18.013 15.5999C17.913 15.7998 17.913 15.7998 17.813 15.6999ZM14.3132 15.9998C14.4132 15.2999 14.4132 15.2999 14.5132 14.9999C15.0131 12.8001 15.5131 10.5003 15.9131 8.30046C16.0131 8.10048 16.0131 8.00049 16.2131 8.00049H18.013C17.813 9.20039 17.613 10.1003 17.313 11.2002C17.013 12.7001 16.7131 14.2 16.3131 15.6999C16.3131 15.8998 16.2131 15.8998 16.0131 15.8998M5.01367 8.20047C5.01367 8.10048 5.21366 8.00049 5.31366 8.00049H8.71348C9.21345 8.00049 9.61343 8.30046 9.71342 8.80042L10.6134 13.2001C10.6134 13.3001 10.6134 13.3001 10.7134 13.4C10.7134 13.3001 10.8134 13.3001 10.8134 13.3001L12.9133 8.20047C12.8133 8.10048 12.9133 8.00049 13.0133 8.00049H15.1131C15.1131 8.10048 15.1131 8.10048 15.0131 8.20047L11.9133 15.4999C11.8133 15.6999 11.8133 15.7998 11.7133 15.8998C11.6133 15.9998 11.4133 15.8998 11.2133 15.8998H9.71342C9.61343 15.8998 9.51344 15.8998 9.51344 15.6999L7.91352 9.50036C7.71353 9.30038 7.41355 9.00041 7.01357 8.90041C6.4136 8.60044 5.31366 8.40045 5.11367 8.40045L5.01367 8.20047Z" fill="#142688"/>
</svg>
