<svg width="39" height="24" viewBox="0 0 39 24" fill="none" xmlns="http://www.w3.org/2000/svg">
<path opacity="0.07" d="M35.0118 0.00195312H3.01351C1.3136 0.00195312 0.0136719 1.30185 0.0136719 3.00171V21.0002C0.0136719 22.7001 1.4136 24 3.01351 24H35.0118C36.7117 24 38.0117 22.7001 38.0117 21.0002V3.00171C38.0117 1.30185 36.6117 0.00195312 35.0118 0.00195312Z" fill="black"/>
<path d="M35.0119 1C36.1118 1 37.0118 1.89993 37.0118 2.99983V20.9983C37.0118 22.0983 36.1118 22.9982 35.0119 22.9982H3.01357C1.91362 22.9982 1.01367 22.0983 1.01367 20.9983V2.99983C1.01367 1.89993 1.91362 1 3.01357 1H35.0119Z" fill="white"/>
<path d="M28.3124 10.0998H28.0125C27.6125 11.0997 27.3125 11.5997 27.0125 13.0996H28.9124C28.6124 11.5997 28.6124 10.8998 28.3124 10.0998ZM31.2123 15.9993H29.5124C29.4124 15.9993 29.4124 15.9993 29.3124 15.8993L29.1124 14.9994L29.0124 14.7994H26.6125C26.5125 14.7994 26.4125 14.7994 26.4125 14.9994L26.1126 15.8993C26.1126 15.9993 26.0126 15.9993 26.0126 15.9993H23.9127L24.1127 15.4994L27.0125 8.69994C27.0125 8.19998 27.3125 8 27.8125 8H29.3124C29.4124 8 29.5124 8 29.5124 8.19998L30.9123 14.6994C31.0123 15.0994 31.1123 15.3994 31.1123 15.7994C31.2123 15.8993 31.2123 15.8993 31.2123 15.9993ZM17.813 15.6994L18.213 13.8995C18.313 13.8995 18.413 13.9995 18.413 13.9995C19.1129 14.2995 19.8129 14.4995 20.5129 14.3995C20.7128 14.3995 21.0128 14.2995 21.2128 14.1995C21.7128 13.9995 21.7128 13.4995 21.3128 13.0996C21.1128 12.8996 20.8128 12.7996 20.5129 12.5996C20.1129 12.3996 19.7129 12.1997 19.4129 11.8997C18.213 10.8998 18.613 9.49988 19.3129 8.79993C19.9129 8.39997 20.2129 8 21.0128 8C22.2128 8 23.5127 8 24.1127 8.19998H24.2127C24.1127 8.79993 24.0127 9.29989 23.8127 9.89984C23.3127 9.69986 22.8127 9.49988 22.3128 9.49988C22.0128 9.49988 21.7128 9.49988 21.4128 9.59987C21.2128 9.59987 21.1128 9.69986 21.0128 9.79985C20.8128 9.99983 20.8128 10.2998 21.0128 10.4998L21.5128 10.8998C21.9128 11.0997 22.3128 11.2997 22.6127 11.4997C23.1127 11.7997 23.6127 12.2996 23.7127 12.8996C23.9127 13.7995 23.6127 14.5995 22.8127 15.1994C22.3128 15.5994 22.1128 15.7994 21.4128 15.7994C20.0129 15.7994 18.9129 15.8993 18.013 15.5994C17.913 15.7994 17.913 15.7994 17.813 15.6994ZM14.3132 15.9993C14.4132 15.2994 14.4132 15.2994 14.5132 14.9994C15.0131 12.7996 15.5131 10.4998 15.9131 8.29998C16.0131 8.09999 16.0131 8 16.2131 8H18.013C17.813 9.1999 17.613 10.0998 17.313 11.1997C17.013 12.6996 16.7131 14.1995 16.3131 15.6994C16.3131 15.8993 16.2131 15.8993 16.0131 15.8993M5.01367 8.19998C5.01367 8.09999 5.21366 8 5.31366 8H8.71348C9.21345 8 9.61343 8.29998 9.71342 8.79993L10.6134 13.1996C10.6134 13.2996 10.6134 13.2996 10.7134 13.3996C10.7134 13.2996 10.8134 13.2996 10.8134 13.2996L12.9133 8.19998C12.8133 8.09999 12.9133 8 13.0133 8H15.1131C15.1131 8.09999 15.1131 8.09999 15.0131 8.19998L11.9133 15.4994C11.8133 15.6994 11.8133 15.7994 11.7133 15.8993C11.6133 15.9993 11.4133 15.8993 11.2133 15.8993H9.71342C9.61343 15.8993 9.51344 15.8993 9.51344 15.6994L7.91352 9.49988C7.71353 9.29989 7.41355 8.99992 7.01357 8.89993C6.4136 8.59995 5.31366 8.39997 5.11367 8.39997L5.01367 8.19998Z" fill="#142688"/>
</svg>
