<svg width="38" height="24" viewBox="0 0 38 24" fill="none" xmlns="http://www.w3.org/2000/svg">
<path opacity="0.07" d="M35.0101 0.000976562H3.0118C1.31189 0.000976562 0.0119629 1.30087 0.0119629 3.00073V20.9992C0.0119629 22.6991 1.41189 23.999 3.0118 23.999H35.0101C36.71 23.999 38.01 22.6991 38.01 20.9992V3.00073C38.01 1.30087 36.61 0.000976562 35.0101 0.000976562Z" fill="black"/>
<path d="M35.0102 1.00098C36.1101 1.00098 37.0101 1.9009 37.0101 3.00081V20.9993C37.0101 22.0992 36.1101 22.9992 35.0102 22.9992H3.01186C1.91192 22.9992 1.01196 22.0992 1.01196 20.9993V3.00081C1.01196 1.9009 1.91192 1.00098 3.01186 1.00098H35.0102Z" fill="white"/>
<path d="M15.0109 18.9993C18.8766 18.9993 22.0103 15.8656 22.0103 11.9999C22.0103 8.13424 18.8766 5.00049 15.0109 5.00049C11.1452 5.00049 8.01147 8.13424 8.01147 11.9999C8.01147 15.8656 11.1452 18.9993 15.0109 18.9993Z" fill="#EB001B"/>
<path d="M23.0107 18.9993C26.8763 18.9993 30.0101 15.8656 30.0101 11.9999C30.0101 8.13424 26.8763 5.00049 23.0107 5.00049C19.145 5.00049 16.0112 8.13424 16.0112 11.9999C16.0112 15.8656 19.145 18.9993 23.0107 18.9993Z" fill="#F79E1B"/>
<path d="M22.0107 12.0001C22.0107 9.60026 20.8108 7.50044 19.011 6.30054C17.2111 7.60043 16.0112 9.70026 16.0112 12.0001C16.0112 14.2999 17.2111 16.4997 19.011 17.6996C20.8108 16.4997 22.0107 14.3999 22.0107 12.0001Z" fill="#FF5F00"/>
</svg>
