<svg width="38" height="24" viewBox="0 0 38 24" fill="none" xmlns="http://www.w3.org/2000/svg">
<path opacity="0.07" d="M35.0082 0.000976562H3.00985C1.30994 0.000976562 0.0100098 1.30087 0.0100098 3.00073V20.9992C0.0100098 22.6991 1.40994 23.999 3.00985 23.999H35.0082C36.7081 23.999 38.008 22.6991 38.008 20.9992V3.00073C38.008 1.30087 36.6081 0.000976562 35.0082 0.000976562Z" fill="black"/>
<path d="M35.0082 1.00098C36.1082 1.00098 37.0081 1.9009 37.0081 3.00081V20.9993C37.0081 22.0992 36.1082 22.9992 35.0082 22.9992H3.0099C1.90996 22.9992 1.01001 22.0992 1.01001 20.9993V3.00081C1.01001 1.9009 1.90996 1.00098 3.0099 1.00098H35.0082Z" fill="#006FCF"/>
<path d="M22.0208 19.9354V11.5151L37.0075 11.5281V13.8539L35.2757 15.7058L37.0075 17.5726V19.9474H34.2417L32.7719 18.3256L31.312 19.9534L22.0208 19.9334V19.9354Z" fill="white"/>
<path d="M23.0217 19.0114V12.4419H28.5933V13.9548H24.8256V14.9827H28.5033V16.4706H24.8256V17.4805H28.5933V19.0114H23.0217Z" fill="#006FCF"/>
<path d="M28.5654 19.0114L31.6482 15.7226L28.5654 12.4409H30.9512L32.8351 14.5237L34.7249 12.4419H37.0077V12.4929L33.991 15.7226L37.0077 18.9194V19.0124H34.7009L32.7841 16.9095L30.8862 19.0134H28.5654V19.0114Z" fill="#006FCF"/>
<path d="M22.7187 4.04077H26.3324L27.6013 6.92153V4.04077H32.061L32.8309 6.19959L33.6018 4.04077H37.0075V12.4611H19.009L22.7187 4.04077Z" fill="white"/>
<path d="M23.4038 4.95557L20.488 11.521H22.4879L23.0378 10.2061H26.0176L26.5675 11.521H28.6174L25.7136 4.95557H23.4038ZM23.6538 8.73225L24.5287 6.64243L25.4016 8.73225H23.6538Z" fill="#006FCF"/>
<path d="M28.5896 11.5201V4.95361L31.4004 4.96361L32.8482 9.00028L34.3041 4.95461H37.0079V11.5191L35.268 11.5351V7.02544L33.6242 11.5191H32.0343L30.3585 7.01044V11.5201H28.5906H28.5896Z" fill="#006FCF"/>
</svg>
