<svg width="39" height="24" viewBox="0 0 39 24" fill="none" xmlns="http://www.w3.org/2000/svg">
<path opacity="0.07" d="M35.0121 0.000976562H3.01376C1.31385 0.000976562 0.013916 1.30087 0.013916 3.00073V20.9992C0.013916 22.6991 1.41384 23.999 3.01376 23.999H35.0121C36.712 23.999 38.0119 22.6991 38.0119 20.9992V3.00073C38.0119 1.30087 36.612 0.000976562 35.0121 0.000976562Z" fill="black"/>
<path d="M35.0121 1.00098C36.1121 1.00098 37.012 1.9009 37.012 3.00081V20.9993C37.012 22.0992 36.1121 22.9992 35.0121 22.9992H3.01381C1.91387 22.9992 1.01392 22.0992 1.01392 20.9993V3.00081C1.01392 1.9009 1.91387 1.00098 3.01381 1.00098H35.0121Z" fill="white"/>
<path d="M28.3124 10.1001H28.0125C27.6125 11.1 27.3125 11.5999 27.0125 13.0998H28.9124C28.6124 11.5999 28.6124 10.9 28.3124 10.1001ZM31.2123 15.9996H29.5124C29.4124 15.9996 29.4124 15.9996 29.3124 15.8996L29.1124 14.9997L29.0124 14.7997H26.6125C26.5125 14.7997 26.4125 14.7997 26.4125 14.9997L26.1126 15.8996C26.1126 15.9996 26.0126 15.9996 26.0126 15.9996H23.9127L24.1127 15.4996L27.0125 8.70019C27.0125 8.20023 27.3125 8.00024 27.8125 8.00024H29.3124C29.4124 8.00024 29.5124 8.00024 29.5124 8.20023L30.9123 14.6997C31.0123 15.0997 31.1123 15.3996 31.1123 15.7996C31.2123 15.8996 31.2123 15.8996 31.2123 15.9996ZM17.813 15.6996L18.213 13.8998C18.313 13.8998 18.413 13.9997 18.413 13.9997C19.1129 14.2997 19.8129 14.4997 20.5129 14.3997C20.7128 14.3997 21.0128 14.2997 21.2128 14.1997C21.7128 13.9997 21.7128 13.4998 21.3128 13.0998C21.1128 12.8998 20.8128 12.7998 20.5129 12.5999C20.1129 12.3999 19.7129 12.1999 19.4129 11.8999C18.213 10.9 18.613 9.50012 19.3129 8.80018C19.9129 8.40021 20.2129 8.00024 21.0128 8.00024C22.2128 8.00024 23.5127 8.00024 24.1127 8.20023H24.2127C24.1127 8.80018 24.0127 9.30014 23.8127 9.90009C23.3127 9.7001 22.8127 9.50012 22.3128 9.50012C22.0128 9.50012 21.7128 9.50012 21.4128 9.60011C21.2128 9.60011 21.1128 9.7001 21.0128 9.8001C20.8128 10.0001 20.8128 10.3001 21.0128 10.5L21.5128 10.9C21.9128 11.1 22.3128 11.3 22.6127 11.5C23.1127 11.7999 23.6127 12.2999 23.7127 12.8998C23.9127 13.7998 23.6127 14.5997 22.8127 15.1996C22.3128 15.5996 22.1128 15.7996 21.4128 15.7996C20.0129 15.7996 18.9129 15.8996 18.013 15.5996C17.913 15.7996 17.913 15.7996 17.813 15.6996ZM14.3132 15.9996C14.4132 15.2996 14.4132 15.2996 14.5132 14.9997C15.0131 12.7998 15.5131 10.5 15.9131 8.30022C16.0131 8.10024 16.0131 8.00024 16.2131 8.00024H18.013C17.813 9.20015 17.613 10.1001 17.313 11.2C17.013 12.6999 16.7131 14.1997 16.3131 15.6996C16.3131 15.8996 16.2131 15.8996 16.0131 15.8996M5.01367 8.20023C5.01367 8.10024 5.21366 8.00024 5.31366 8.00024H8.71348C9.21345 8.00024 9.61343 8.30022 9.71342 8.80018L10.6134 13.1998C10.6134 13.2998 10.6134 13.2998 10.7134 13.3998C10.7134 13.2998 10.8134 13.2998 10.8134 13.2998L12.9133 8.20023C12.8133 8.10024 12.9133 8.00024 13.0133 8.00024H15.1131C15.1131 8.10024 15.1131 8.10024 15.0131 8.20023L11.9133 15.4996C11.8133 15.6996 11.8133 15.7996 11.7133 15.8996C11.6133 15.9996 11.4133 15.8996 11.2133 15.8996H9.71342C9.61343 15.8996 9.51344 15.8996 9.51344 15.6996L7.91352 9.50012C7.71353 9.30014 7.41355 9.00016 7.01357 8.90017C6.4136 8.60019 5.31366 8.40021 5.11367 8.40021L5.01367 8.20023Z" fill="#142688"/>
</svg>
