<svg width="38" height="24" viewBox="0 0 38 24" fill="none" xmlns="http://www.w3.org/2000/svg">
<path opacity="0.07" d="M35.0101 0.000976562H3.0118C1.31189 0.000976562 0.0119629 1.30087 0.0119629 3.00073V20.9992C0.0119629 22.6991 1.41189 23.999 3.0118 23.999H35.0101C36.71 23.999 38.01 22.6991 38.01 20.9992V3.00073C38.01 1.30087 36.61 0.000976562 35.0101 0.000976562Z" fill="black"/>
<path d="M35.0101 1.00098C36.11 1.00098 37.0099 1.9009 37.0099 3.00081V20.9993C37.0099 22.0992 36.11 22.9992 35.0101 22.9992H3.01174C1.91179 22.9992 1.01184 22.0992 1.01184 20.9993V3.00081C1.01184 1.9009 1.91179 1.00098 3.01174 1.00098H35.0101Z" fill="white"/>
<path d="M15.011 18.9993C18.8767 18.9993 22.0104 15.8656 22.0104 11.9999C22.0104 8.13424 18.8767 5.00049 15.011 5.00049C11.1453 5.00049 8.0116 8.13424 8.0116 11.9999C8.0116 15.8656 11.1453 18.9993 15.011 18.9993Z" fill="#EB001B"/>
<path d="M23.0105 18.9993C26.8762 18.9993 30.01 15.8656 30.01 11.9999C30.01 8.13424 26.8762 5.00049 23.0105 5.00049C19.1449 5.00049 16.0111 8.13424 16.0111 11.9999C16.0111 15.8656 19.1449 18.9993 23.0105 18.9993Z" fill="#F79E1B"/>
<path d="M22.0106 11.9998C22.0106 9.60002 20.8107 7.50019 19.0109 6.30029C17.211 7.60019 16.0111 9.70001 16.0111 11.9998C16.0111 14.2996 17.211 16.4995 19.0109 17.6994C20.8107 16.4995 22.0106 14.3996 22.0106 11.9998Z" fill="#FF5F00"/>
</svg>
