<svg width="39" height="24" viewBox="0 0 39 24" fill="none" xmlns="http://www.w3.org/2000/svg">
<path opacity="0.07" d="M35.0118 0.000976562H3.01351C1.3136 0.000976562 0.0136719 1.30087 0.0136719 3.00073V20.9992C0.0136719 22.6991 1.4136 23.999 3.01351 23.999H35.0118C36.7117 23.999 38.0117 22.6991 38.0117 20.9992V3.00073C38.0117 1.30087 36.6117 0.000976562 35.0118 0.000976562Z" fill="black"/>
<path d="M35.0119 1.00098C36.1118 1.00098 37.0118 1.9009 37.0118 3.00081V20.9993C37.0118 22.0992 36.1118 22.9992 35.0119 22.9992H3.01357C1.91362 22.9992 1.01367 22.0992 1.01367 20.9993V3.00081C1.01367 1.9009 1.91362 1.00098 3.01357 1.00098H35.0119Z" fill="white"/>
<path d="M28.312 10.1001H28.012C27.612 11.1 27.312 11.5999 27.012 13.0998H28.9119C28.6119 11.5999 28.6119 10.9 28.312 10.1001ZM31.2118 15.9996H29.5119C29.4119 15.9996 29.4119 15.9996 29.3119 15.8996L29.1119 14.9997L29.0119 14.7997H26.612C26.5121 14.7997 26.4121 14.7997 26.4121 14.9997L26.1121 15.8996C26.1121 15.9996 26.0121 15.9996 26.0121 15.9996H23.9122L24.1122 15.4996L27.012 8.70019C27.012 8.20023 27.312 8.00024 27.812 8.00024H29.3119C29.4119 8.00024 29.5119 8.00024 29.5119 8.20023L30.9118 14.6997C31.0118 15.0997 31.1118 15.3996 31.1118 15.7996C31.2118 15.8996 31.2118 15.8996 31.2118 15.9996ZM17.8125 15.6996L18.2125 13.8998C18.3125 13.8998 18.4125 13.9997 18.4125 13.9997C19.1124 14.2997 19.8124 14.4997 20.5124 14.3997C20.7124 14.3997 21.0123 14.2997 21.2123 14.1997C21.7123 13.9997 21.7123 13.4998 21.3123 13.0998C21.1123 12.8998 20.8124 12.7998 20.5124 12.5999C20.1124 12.3999 19.7124 12.1999 19.4124 11.8999C18.2125 10.9 18.6125 9.50012 19.3124 8.80018C19.9124 8.40021 20.2124 8.00024 21.0123 8.00024C22.2123 8.00024 23.5122 8.00024 24.1122 8.20023H24.2122C24.1122 8.80018 24.0122 9.30014 23.8122 9.90009C23.3122 9.7001 22.8122 9.50012 22.3123 9.50012C22.0123 9.50012 21.7123 9.50012 21.4123 9.60011C21.2123 9.60011 21.1123 9.7001 21.0123 9.8001C20.8124 10.0001 20.8124 10.3001 21.0123 10.5L21.5123 10.9C21.9123 11.1 22.3123 11.3 22.6123 11.5C23.1122 11.7999 23.6122 12.2999 23.7122 12.8998C23.9122 13.7998 23.6122 14.5997 22.8122 15.1996C22.3123 15.5996 22.1123 15.7996 21.4123 15.7996C20.0124 15.7996 18.9125 15.8996 18.0125 15.5996C17.9125 15.7996 17.9125 15.7996 17.8125 15.6996ZM14.3127 15.9996C14.4127 15.2996 14.4127 15.2996 14.5127 14.9997C15.0127 12.7998 15.5126 10.5 15.9126 8.30022C16.0126 8.10024 16.0126 8.00024 16.2126 8.00024H18.0125C17.8125 9.20015 17.6125 10.1001 17.3125 11.2C17.0126 12.6999 16.7126 14.1997 16.3126 15.6996C16.3126 15.8996 16.2126 15.8996 16.0126 15.8996M5.01318 8.20023C5.01318 8.10024 5.21317 8.00024 5.31317 8.00024H8.71299C9.21296 8.00024 9.61294 8.30022 9.71294 8.80018L10.6129 13.1998C10.6129 13.2998 10.6129 13.2998 10.7129 13.3998C10.7129 13.2998 10.8129 13.2998 10.8129 13.2998L12.9128 8.20023C12.8128 8.10024 12.9128 8.00024 13.0128 8.00024H15.1127C15.1127 8.10024 15.1127 8.10024 15.0127 8.20023L11.9128 15.4996C11.8128 15.6996 11.8128 15.7996 11.7128 15.8996C11.6128 15.9996 11.4128 15.8996 11.2129 15.8996H9.71294C9.61294 15.8996 9.51295 15.8996 9.51295 15.6996L7.91303 9.50012C7.71304 9.30014 7.41306 9.00016 7.01308 8.90017C6.41311 8.60019 5.31317 8.40021 5.11318 8.40021L5.01318 8.20023Z" fill="#142688"/>
</svg>
