<svg width="96" height="16" viewBox="0 0 96 16" fill="none" xmlns="http://www.w3.org/2000/svg">
<path d="M7.99992 11.5133L12.1199 14L11.0266 9.31334L14.6666 6.16001L9.87325 5.75334L7.99992 1.33334L6.12658 5.75334L1.33325 6.16001L4.97325 9.31334L3.87992 14L7.99992 11.5133Z" fill="black"/>
<path d="M27.9999 11.5133L32.1199 14L31.0266 9.31334L34.6666 6.16001L29.8733 5.75334L27.9999 1.33334L26.1266 5.75334L21.3333 6.16001L24.9733 9.31334L23.8799 14L27.9999 11.5133Z" fill="black"/>
<path d="M47.9999 11.5133L52.1199 14L51.0266 9.31334L54.6666 6.16001L49.8733 5.75334L47.9999 1.33334L46.1266 5.75334L41.3333 6.16001L44.9733 9.31334L43.8799 14L47.9999 11.5133Z" fill="black"/>
<path d="M67.9999 11.5133L72.1199 14L71.0266 9.31334L74.6666 6.16001L69.8733 5.75334L67.9999 1.33334L66.1266 5.75334L61.3333 6.16001L64.9733 9.31334L63.8799 14L67.9999 11.5133Z" fill="black"/>
<path d="M87.9999 11.5133L92.1199 14L91.0266 9.31334L94.6666 6.16001L89.8733 5.75334L87.9999 1.33334L86.1266 5.75334L81.3333 6.16001L84.9733 9.31334L83.8799 14L87.9999 11.5133Z" fill="black"/>
</svg>
