<svg width="44" height="44" viewBox="0 0 44 44" fill="none" xmlns="http://www.w3.org/2000/svg">
<rect width="44" height="44" rx="22" fill="white" fill-opacity="0.4"/>
<path d="M29.376 21.9817L18.777 29.0477C18.7017 29.0978 18.6142 29.1266 18.5239 29.1309C18.4336 29.1352 18.3437 29.115 18.264 29.0723C18.1843 29.0296 18.1176 28.9661 18.0711 28.8885C18.0246 28.8109 18 28.7222 18 28.6317V14.4997C18 14.4093 18.0246 14.3206 18.0711 14.243C18.1176 14.1654 18.1843 14.1019 18.264 14.0592C18.3437 14.0165 18.4336 13.9962 18.5239 14.0006C18.6142 14.0049 18.7017 14.0336 18.777 14.0837L29.376 21.1497C29.4445 21.1954 29.5006 21.2573 29.5395 21.3298C29.5783 21.4024 29.5986 21.4834 29.5986 21.5657C29.5986 21.648 29.5783 21.7291 29.5395 21.8017C29.5006 21.8742 29.4445 21.9361 29.376 21.9817Z" fill="white"/>
</svg>
