<svg width="19" height="18" viewBox="0 0 19 18" fill="none" xmlns="http://www.w3.org/2000/svg">
<path d="M16.0833 5.625L13.0833 7.125M13.0833 7.125L12.7083 7.3125L9.33325 9M13.0833 7.125V9.75M13.0833 7.125L5.95825 3.375M9.33325 9L2.58325 5.625M9.33325 9V16.125M12.0168 2.5365L13.5168 3.324C15.13 4.17075 15.937 4.59375 16.3855 5.355C16.8333 6.1155 16.8333 7.06275 16.8333 8.9565V9.04425C16.8333 10.9372 16.8333 11.8845 16.3855 12.645C15.937 13.4063 15.13 13.83 13.5168 14.6768L12.0168 15.4635C10.6998 16.1543 10.0413 16.5 9.33325 16.5C8.62525 16.5 7.96675 16.155 6.64975 15.4635L5.14975 14.676C3.5365 13.8293 2.7295 13.4063 2.281 12.645C1.83325 11.8845 1.83325 10.9373 1.83325 9.045V8.95725C1.83325 7.0635 1.83325 6.11625 2.281 5.35575C2.7295 4.5945 3.5365 4.17075 5.14975 3.32475L6.64975 2.53725C7.96675 1.84575 8.62525 1.5 9.33325 1.5C10.0413 1.5 10.6998 1.845 12.0168 2.5365Z" stroke="black" stroke-width="1.125" stroke-linecap="round"/>
</svg>
