<svg width="22" height="22" viewBox="0 0 22 22" fill="none" xmlns="http://www.w3.org/2000/svg">
<path d="M17.642 6.39674H4.35833C4.19652 6.39749 4.04052 6.45716 3.9195 6.56457C3.79847 6.67198 3.7207 6.81979 3.70073 6.98037L2.53347 17.5021C2.52309 17.5938 2.53211 17.6867 2.55996 17.7746C2.5878 17.8626 2.63385 17.9437 2.6951 18.0126C2.75634 18.0816 2.83142 18.137 2.91546 18.1751C2.99949 18.2131 3.0906 18.2331 3.18286 18.2337H18.8175C18.9098 18.2331 19.0008 18.2131 19.0849 18.1751C19.1689 18.137 19.244 18.0816 19.3053 18.0126C19.3665 17.9437 19.4125 17.8626 19.4404 17.7746C19.4683 17.6867 19.4773 17.5938 19.4669 17.5021L18.2996 6.98037C18.2796 6.81979 18.2019 6.67198 18.0809 6.56457C17.9599 6.45716 17.8039 6.39749 17.642 6.39674Z" stroke="white" stroke-width="1.43478" stroke-linecap="round" stroke-linejoin="round"/>
<path d="M7.0542 5.73913C7.0542 4.69268 7.4699 3.68909 8.20985 2.94913C8.94981 2.20918 9.9534 1.79348 10.9999 1.79348C12.0463 1.79348 13.0499 2.20918 13.7898 2.94913C14.5298 3.68909 14.9455 4.69268 14.9455 5.73913" stroke="white" stroke-width="1.43478" stroke-linecap="round" stroke-linejoin="round"/>
</svg>
