<svg width="22" height="22" viewBox="0 0 22 22" fill="none" xmlns="http://www.w3.org/2000/svg">
<path d="M17.6418 6.39674H4.35809C4.19628 6.39749 4.04028 6.45716 3.91926 6.56457C3.79823 6.67198 3.72045 6.81979 3.70048 6.98037L2.53323 17.5021C2.52285 17.5938 2.53187 17.6867 2.55971 17.7746C2.58756 17.8626 2.63361 17.9437 2.69485 18.0126C2.7561 18.0816 2.83118 18.137 2.91522 18.1751C2.99925 18.2131 3.09035 18.2331 3.18262 18.2337H18.8172C18.9095 18.2331 19.0006 18.2131 19.0847 18.1751C19.1687 18.137 19.2437 18.0816 19.3051 18.0126C19.3663 17.9437 19.4123 17.8626 19.4401 17.7746C19.4681 17.6867 19.477 17.5938 19.4666 17.5021L18.2994 6.98037C18.2794 6.81979 18.2016 6.67198 18.0806 6.56457C17.9596 6.45716 17.8036 6.39749 17.6418 6.39674Z" stroke="white" stroke-width="1.43478" stroke-linecap="round" stroke-linejoin="round"/>
<path d="M7.05444 5.73913C7.05444 4.69268 7.47015 3.68909 8.21009 2.94913C8.95005 2.20918 9.95364 1.79348 11.0001 1.79348C12.0465 1.79348 13.0501 2.20918 13.7901 2.94913C14.53 3.68909 14.9457 4.69268 14.9457 5.73913" stroke="white" stroke-width="1.43478" stroke-linecap="round" stroke-linejoin="round"/>
</svg>
