<svg width="22" height="22" viewBox="0 0 22 22" fill="none" xmlns="http://www.w3.org/2000/svg">
<path d="M17.642 6.39648H4.35833C4.19652 6.39724 4.04052 6.45691 3.9195 6.56432C3.79847 6.67172 3.7207 6.81953 3.70073 6.98012L2.53347 17.5019C2.52309 17.5935 2.53211 17.6864 2.55996 17.7743C2.5878 17.8623 2.63385 17.9434 2.6951 18.0124C2.75634 18.0814 2.83142 18.1367 2.91546 18.1748C2.99949 18.2129 3.0906 18.2329 3.18286 18.2334H18.8175C18.9098 18.2329 19.0008 18.2129 19.0849 18.1748C19.1689 18.1367 19.244 18.0814 19.3053 18.0124C19.3665 17.9434 19.4125 17.8623 19.4404 17.7743C19.4683 17.6864 19.4773 17.5935 19.4669 17.5019L18.2996 6.98012C18.2796 6.81953 18.2019 6.67172 18.0809 6.56432C17.9599 6.45691 17.8039 6.39724 17.642 6.39648Z" stroke="white" stroke-width="1.43478" stroke-linecap="round" stroke-linejoin="round"/>
<path d="M7.05469 5.7396C7.05469 4.69314 7.47039 3.68955 8.21034 2.9496C8.95029 2.20965 9.95389 1.79395 11.0003 1.79395C12.0468 1.79395 13.0504 2.20965 13.7903 2.9496C14.5303 3.68955 14.946 4.69314 14.946 5.7396" stroke="white" stroke-width="1.43478" stroke-linecap="round" stroke-linejoin="round"/>
</svg>
