<svg width="40" height="40" viewBox="0 0 40 40" fill="none" xmlns="http://www.w3.org/2000/svg">
<rect x="0.5" y="0.5" width="39" height="39" rx="19.5" stroke="black" stroke-opacity="0.16"/>
<path d="M26.4813 21.0465L21.2957 26.233C20.9519 26.5767 20.4857 26.7697 19.9995 26.7697C19.5134 26.7697 19.0472 26.5767 18.7034 26.233L13.5178 21.0474C13.0891 20.6225 12.7486 20.1171 12.5158 19.5602C12.283 19.0033 12.1625 18.4059 12.1611 17.8024C12.1598 17.1988 12.2777 16.6009 12.5081 16.043C12.7385 15.4851 13.0768 14.9782 13.5036 14.5514C13.9304 14.1246 14.4372 13.7863 14.9951 13.556C15.553 13.3256 16.1509 13.2077 16.7545 13.209C17.3581 13.2103 17.9555 13.3308 18.5123 13.5637C19.0692 13.7965 19.5746 14.137 19.9995 14.5656C20.8626 13.724 22.0226 13.2563 23.2281 13.2639C24.4336 13.2714 25.5875 13.7536 26.44 14.606C27.2925 15.4584 27.7749 16.6123 27.7826 17.8178C27.7903 19.0233 27.3228 20.1832 26.4813 21.0465Z" stroke="black" stroke-width="1.375" stroke-linecap="round" stroke-linejoin="round"/>
</svg>
