<svg width="44" height="44" viewBox="0 0 44 44" fill="none" xmlns="http://www.w3.org/2000/svg">
<path d="M28.4813 23.0468L23.2957 28.2333C22.9519 28.577 22.4857 28.7701 21.9995 28.7701C21.5134 28.7701 21.0472 28.577 20.7034 28.2333L15.5178 23.0478C15.0891 22.6228 14.7486 22.1174 14.5158 21.5605C14.283 21.0037 14.1625 20.4063 14.1611 19.8027C14.1598 19.1991 14.2777 18.6012 14.5081 18.0434C14.7385 17.4855 15.0768 16.9786 15.5036 16.5518C15.9304 16.125 16.4372 15.7867 16.9951 15.5563C17.553 15.3259 18.1509 15.208 18.7545 15.2094C19.3581 15.2107 19.9555 15.3312 20.5123 15.564C21.0692 15.7968 21.5746 16.1373 21.9995 16.566C22.8626 15.7244 24.0226 15.2567 25.2281 15.2642C26.4336 15.2718 27.5875 15.754 28.44 16.6064C29.2925 17.4587 29.7749 18.6126 29.7826 19.8181C29.7903 21.0236 29.3228 22.1836 28.4813 23.0468Z" stroke="white" stroke-width="1.375" stroke-linecap="round" stroke-linejoin="round"/>
</svg>
