<svg width="48" height="48" viewBox="0 0 48 48" fill="none" xmlns="http://www.w3.org/2000/svg">
<rect x="0.5" y="0.5" width="47" height="47" rx="23.5" stroke="black" stroke-opacity="0.08"/>
<path d="M30.4818 25.0468L25.2962 30.2333C24.9524 30.577 24.4862 30.7701 24 30.7701C23.5139 30.7701 23.0477 30.577 22.7039 30.2333L17.5183 25.0478C17.0896 24.6228 16.7491 24.1174 16.5163 23.5605C16.2835 23.0037 16.163 22.4063 16.1616 21.8027C16.1603 21.1991 16.2782 20.6012 16.5086 20.0434C16.739 19.4855 17.0773 18.9786 17.504 18.5518C17.9308 18.125 18.4377 17.7867 18.9956 17.5563C19.5535 17.3259 20.1514 17.208 20.755 17.2094C21.3586 17.2107 21.9559 17.3312 22.5128 17.564C23.0697 17.7968 23.5751 18.1373 24 18.566C24.8631 17.7244 26.0231 17.2567 27.2285 17.2642C28.434 17.2718 29.588 17.754 30.4405 18.6064C31.293 19.4587 31.7753 20.6126 31.7831 21.8181C31.7908 23.0236 31.3233 24.1836 30.4818 25.0468Z" stroke="black" stroke-width="1.375" stroke-linecap="round" stroke-linejoin="round"/>
</svg>
