<svg width="44" height="44" viewBox="0 0 44 44" fill="none" xmlns="http://www.w3.org/2000/svg">
<path d="M28.4813 23.0465L23.2957 28.233C22.9519 28.5767 22.4857 28.7697 21.9995 28.7697C21.5134 28.7697 21.0472 28.5767 20.7034 28.233L15.5178 23.0474C15.0891 22.6225 14.7486 22.1171 14.5158 21.5602C14.283 21.0033 14.1625 20.4059 14.1611 19.8024C14.1598 19.1988 14.2777 18.6009 14.5081 18.043C14.7385 17.4851 15.0768 16.9782 15.5036 16.5514C15.9304 16.1246 16.4372 15.7863 16.9951 15.556C17.553 15.3256 18.1509 15.2077 18.7545 15.209C19.3581 15.2103 19.9555 15.3308 20.5123 15.5637C21.0692 15.7965 21.5746 16.137 21.9995 16.5656C22.8626 15.724 24.0226 15.2563 25.2281 15.2639C26.4336 15.2714 27.5875 15.7536 28.44 16.606C29.2925 17.4584 29.7749 18.6123 29.7826 19.8178C29.7903 21.0233 29.3228 22.1832 28.4813 23.0465Z" stroke="white" stroke-width="1.375" stroke-linecap="round" stroke-linejoin="round"/>
</svg>
